<svg fill="none" height="17" viewBox="0 0 72 17" width="72" xmlns="http://www.w3.org/2000/svg">
  <g id="Layer_1-2" data-name="Layer 1">
    <path d="M4.21,3.34h3.75V7.87l3.93-4.52h4.98l-4.43,4.52,4.62,7.45h-4.62l-2.56-4.92-1.94,2v2.92h-3.75V3.34Z" fill="#110e38"/>
    <path d="M17.09,3.34h4.16l2.44,4.04,2.45-4.04h4.14l-4.72,6.96v5.01h-3.76v-5.01l-4.72-6.96Z" fill="#110e38"/>
    <path d="M31.49,3.34h3.75V12.36h5.85v2.95h-9.6V3.34Z" fill="#110e38"/>
    <path d="M42.94,3.34h3.76V15.31h-3.76V3.34Z" fill="#110e38"/>
    <path d="M49.41,3.34h3.5l4.57,6.62V3.34h3.53V15.31h-3.53l-4.54-6.57v6.57h-3.52V3.34Z" fill="#110e38"/>
    <ellipse cx="66.07" cy="13.18" rx="2.54" ry="2.09" fill="#110e38"/>
  </g>
</svg>